<svg id="icon__logo" width="340" height="75" viewBox="0 0 340 75" fill="none" xmlns="http://www.w3.org/2000/svg">
<path d="M37.5 0L45.9193 25.9119H73.1646L51.1227 41.9263L59.5419 67.8381L37.5 51.8237L15.4581 67.8381L23.8773 41.9263L1.83538 25.9119H29.0807L37.5 0Z" fill="#F2A84F"/>
<path d="M97.28 34.5V17.364H107.648V19.596H99.872V24.42H102.08C103.776 24.42 105.104 24.636 106.064 25.068C107.04 25.5 107.728 26.092 108.128 26.844C108.544 27.58 108.752 28.428 108.752 29.388C108.752 30.444 108.528 31.356 108.08 32.124C107.648 32.892 106.96 33.484 106.016 33.9C105.072 34.3 103.832 34.5 102.296 34.5H97.28ZM102.104 32.316C103.512 32.316 104.528 32.084 105.152 31.62C105.776 31.14 106.088 30.396 106.088 29.388C106.088 28.684 105.936 28.132 105.632 27.732C105.328 27.332 104.856 27.044 104.216 26.868C103.592 26.692 102.768 26.604 101.744 26.604H99.872V32.316H102.104ZM122.29 34.5H119.722V23.604H116.074C115.914 25.588 115.714 27.292 115.474 28.716C115.25 30.124 114.954 31.268 114.586 32.148C114.234 33.028 113.794 33.676 113.266 34.092C112.754 34.492 112.138 34.692 111.418 34.692C111.162 34.692 110.914 34.668 110.674 34.62C110.434 34.588 110.226 34.532 110.05 34.452V32.508C110.162 32.54 110.282 32.572 110.41 32.604C110.554 32.62 110.698 32.628 110.842 32.628C111.162 32.628 111.45 32.5 111.706 32.244C111.978 31.988 112.218 31.588 112.426 31.044C112.65 30.5 112.85 29.796 113.026 28.932C113.218 28.052 113.378 27.004 113.506 25.788C113.65 24.572 113.778 23.164 113.89 21.564H122.29V34.5ZM131.281 21.324C132.913 21.324 134.129 21.684 134.929 22.404C135.729 23.108 136.129 24.22 136.129 25.74V34.5H134.329L133.825 32.7H133.729C133.361 33.164 132.977 33.548 132.577 33.852C132.193 34.156 131.745 34.38 131.233 34.524C130.737 34.668 130.129 34.74 129.409 34.74C128.641 34.74 127.945 34.604 127.321 34.332C126.713 34.044 126.233 33.612 125.881 33.036C125.529 32.444 125.353 31.708 125.353 30.828C125.353 29.516 125.849 28.516 126.841 27.828C127.849 27.14 129.377 26.764 131.425 26.7L133.633 26.628V25.908C133.633 24.948 133.417 24.276 132.985 23.892C132.553 23.508 131.945 23.316 131.161 23.316C130.489 23.316 129.849 23.412 129.241 23.604C128.633 23.796 128.057 24.028 127.513 24.3L126.697 22.452C127.305 22.132 128.001 21.868 128.785 21.66C129.585 21.436 130.417 21.324 131.281 21.324ZM131.881 28.332C130.409 28.396 129.385 28.644 128.809 29.076C128.249 29.492 127.969 30.084 127.969 30.852C127.969 31.524 128.169 32.012 128.569 32.316C128.985 32.62 129.505 32.772 130.129 32.772C131.137 32.772 131.969 32.492 132.625 31.932C133.281 31.372 133.609 30.532 133.609 29.412V28.284L131.881 28.332ZM148.255 21.564V23.604H142.591V34.5H140.047V21.564H148.255ZM161.923 28.02C161.923 29.092 161.779 30.044 161.491 30.876C161.203 31.708 160.795 32.412 160.267 32.988C159.739 33.564 159.099 34.004 158.347 34.308C157.595 34.596 156.747 34.74 155.803 34.74C154.939 34.74 154.139 34.596 153.403 34.308C152.667 34.004 152.027 33.564 151.483 32.988C150.955 32.412 150.539 31.708 150.235 30.876C149.931 30.044 149.779 29.084 149.779 27.996C149.779 26.572 150.019 25.364 150.499 24.372C150.995 23.38 151.699 22.628 152.611 22.116C153.539 21.588 154.627 21.324 155.875 21.324C157.059 21.324 158.099 21.588 158.995 22.116C159.907 22.628 160.619 23.38 161.131 24.372C161.659 25.364 161.923 26.58 161.923 28.02ZM152.395 28.02C152.395 28.98 152.515 29.812 152.755 30.516C152.995 31.204 153.371 31.732 153.883 32.1C154.395 32.468 155.051 32.652 155.851 32.652C156.651 32.652 157.307 32.468 157.819 32.1C158.331 31.732 158.707 31.204 158.947 30.516C159.187 29.812 159.307 28.98 159.307 28.02C159.307 27.028 159.179 26.196 158.923 25.524C158.683 24.852 158.307 24.34 157.795 23.988C157.299 23.62 156.643 23.436 155.827 23.436C154.627 23.436 153.755 23.836 153.211 24.636C152.667 25.436 152.395 26.564 152.395 28.02ZM174.37 23.604H170.146V34.5H167.626V23.604H163.426V21.564H174.37V23.604ZM187.618 24.852C187.618 25.636 187.378 26.26 186.898 26.724C186.434 27.172 185.81 27.476 185.026 27.636V27.732C185.858 27.844 186.562 28.14 187.138 28.62C187.73 29.084 188.026 29.772 188.026 30.684C188.026 31.244 187.922 31.756 187.714 32.22C187.506 32.684 187.186 33.092 186.754 33.444C186.322 33.78 185.762 34.044 185.074 34.236C184.402 34.412 183.586 34.5 182.626 34.5H176.89V21.564H182.626C183.57 21.564 184.418 21.668 185.17 21.876C185.922 22.084 186.514 22.428 186.946 22.908C187.394 23.388 187.618 24.036 187.618 24.852ZM185.386 30.636C185.386 29.964 185.13 29.484 184.618 29.196C184.106 28.892 183.346 28.74 182.338 28.74H179.434V32.58H182.386C183.33 32.58 184.066 32.436 184.594 32.148C185.122 31.844 185.386 31.34 185.386 30.636ZM185.026 25.14C185.026 24.58 184.826 24.172 184.426 23.916C184.026 23.66 183.378 23.532 182.482 23.532H179.434V26.796H182.098C183.058 26.796 183.786 26.668 184.282 26.412C184.778 26.14 185.026 25.716 185.026 25.14ZM202.494 28.02C202.494 29.092 202.35 30.044 202.062 30.876C201.774 31.708 201.366 32.412 200.838 32.988C200.31 33.564 199.67 34.004 198.918 34.308C198.166 34.596 197.318 34.74 196.374 34.74C195.51 34.74 194.71 34.596 193.974 34.308C193.238 34.004 192.598 33.564 192.054 32.988C191.526 32.412 191.11 31.708 190.806 30.876C190.502 30.044 190.35 29.084 190.35 27.996C190.35 26.572 190.59 25.364 191.07 24.372C191.566 23.38 192.27 22.628 193.182 22.116C194.11 21.588 195.198 21.324 196.446 21.324C197.63 21.324 198.67 21.588 199.566 22.116C200.478 22.628 201.19 23.38 201.702 24.372C202.23 25.364 202.494 26.58 202.494 28.02ZM192.966 28.02C192.966 28.98 193.086 29.812 193.326 30.516C193.566 31.204 193.942 31.732 194.454 32.1C194.966 32.468 195.622 32.652 196.422 32.652C197.222 32.652 197.878 32.468 198.39 32.1C198.902 31.732 199.278 31.204 199.518 30.516C199.758 29.812 199.878 28.98 199.878 28.02C199.878 27.028 199.75 26.196 199.494 25.524C199.254 24.852 198.878 24.34 198.366 23.988C197.87 23.62 197.214 23.436 196.398 23.436C195.198 23.436 194.326 23.836 193.782 24.636C193.238 25.436 192.966 26.564 192.966 28.02ZM212.175 21.324C213.727 21.324 214.975 21.884 215.919 23.004C216.879 24.124 217.359 25.796 217.359 28.02C217.359 29.476 217.143 30.708 216.711 31.716C216.279 32.724 215.671 33.484 214.887 33.996C214.103 34.492 213.191 34.74 212.151 34.74C211.495 34.74 210.919 34.66 210.423 34.5C209.927 34.324 209.503 34.1 209.151 33.828C208.815 33.54 208.519 33.236 208.263 32.916H208.095C208.143 33.204 208.183 33.548 208.215 33.948C208.247 34.332 208.263 34.676 208.263 34.98V40.26H205.719V21.564H207.783L208.143 23.292H208.263C208.519 22.94 208.823 22.612 209.175 22.308C209.527 22.004 209.951 21.764 210.447 21.588C210.943 21.412 211.519 21.324 212.175 21.324ZM211.575 23.412C210.775 23.412 210.135 23.572 209.655 23.892C209.175 24.196 208.823 24.66 208.599 25.284C208.391 25.892 208.279 26.668 208.263 27.612V27.996C208.263 28.988 208.367 29.836 208.575 30.54C208.783 31.228 209.127 31.756 209.607 32.124C210.103 32.476 210.775 32.652 211.623 32.652C212.343 32.652 212.927 32.46 213.375 32.076C213.839 31.676 214.183 31.124 214.407 30.42C214.631 29.716 214.743 28.9 214.743 27.972C214.743 26.564 214.487 25.452 213.975 24.636C213.463 23.82 212.663 23.412 211.575 23.412ZM223.025 28.62C223.025 28.812 223.017 29.06 223.001 29.364C222.985 29.668 222.969 29.988 222.953 30.324C222.937 30.644 222.913 30.948 222.881 31.236C222.865 31.508 222.849 31.724 222.833 31.884L229.481 21.564H232.577V34.5H230.177V27.612C230.177 27.308 230.185 26.932 230.201 26.484C230.217 26.036 230.233 25.604 230.249 25.188C230.281 24.756 230.305 24.428 230.321 24.204L223.721 34.5H220.601V21.564H223.025V28.62ZM246.042 23.604H241.818V34.5H239.298V23.604H235.098V21.564H246.042V23.604ZM253.416 21.324C254.552 21.324 255.528 21.564 256.344 22.044C257.16 22.508 257.784 23.18 258.216 24.06C258.664 24.94 258.888 25.98 258.888 27.18V28.572H250.2C250.232 29.9 250.576 30.916 251.232 31.62C251.904 32.324 252.84 32.676 254.04 32.676C254.872 32.676 255.608 32.604 256.248 32.46C256.904 32.3 257.576 32.068 258.264 31.764V33.876C257.624 34.164 256.968 34.38 256.296 34.524C255.64 34.668 254.856 34.74 253.944 34.74C252.696 34.74 251.592 34.492 250.632 33.996C249.672 33.5 248.92 32.764 248.376 31.788C247.848 30.796 247.584 29.58 247.584 28.14C247.584 26.684 247.824 25.452 248.304 24.444C248.8 23.436 249.48 22.668 250.344 22.14C251.224 21.596 252.248 21.324 253.416 21.324ZM253.416 23.292C252.504 23.292 251.768 23.588 251.208 24.18C250.664 24.772 250.344 25.612 250.248 26.7H256.344C256.344 26.028 256.24 25.436 256.032 24.924C255.824 24.412 255.504 24.012 255.072 23.724C254.64 23.436 254.088 23.292 253.416 23.292ZM272.43 34.5H269.862V23.604H266.214C266.054 25.588 265.854 27.292 265.614 28.716C265.39 30.124 265.094 31.268 264.726 32.148C264.374 33.028 263.934 33.676 263.406 34.092C262.894 34.492 262.278 34.692 261.558 34.692C261.302 34.692 261.054 34.668 260.814 34.62C260.574 34.588 260.366 34.532 260.19 34.452V32.508C260.302 32.54 260.422 32.572 260.55 32.604C260.694 32.62 260.838 32.628 260.982 32.628C261.302 32.628 261.59 32.5 261.846 32.244C262.118 31.988 262.358 31.588 262.566 31.044C262.79 30.5 262.99 29.796 263.166 28.932C263.358 28.052 263.518 27.004 263.646 25.788C263.79 24.572 263.918 23.164 264.03 21.564H272.43V34.5ZM282.382 26.772C283.566 26.772 284.542 26.916 285.31 27.204C286.094 27.476 286.678 27.884 287.062 28.428C287.462 28.972 287.662 29.66 287.662 30.492C287.662 31.308 287.478 32.02 287.11 32.628C286.742 33.22 286.166 33.684 285.382 34.02C284.598 34.34 283.59 34.5 282.358 34.5H276.406V21.564H278.95V26.772H282.382ZM285.118 30.588C285.118 29.884 284.862 29.404 284.35 29.148C283.854 28.876 283.134 28.74 282.19 28.74H278.95V32.58H282.238C283.086 32.58 283.774 32.428 284.302 32.124C284.846 31.82 285.118 31.308 285.118 30.588ZM293.341 21.564V26.82H299.725V21.564H302.269V34.5H299.725V28.86H293.341V34.5H290.797V21.564H293.341ZM306.242 34.5V21.564H308.786V26.772H311.642C312.826 26.772 313.802 26.916 314.57 27.204C315.338 27.476 315.906 27.884 316.274 28.428C316.642 28.972 316.826 29.66 316.826 30.492C316.826 31.308 316.642 32.02 316.274 32.628C315.922 33.22 315.362 33.684 314.594 34.02C313.842 34.34 312.85 34.5 311.618 34.5H306.242ZM311.426 32.58C312.274 32.58 312.962 32.436 313.49 32.148C314.034 31.844 314.306 31.324 314.306 30.588C314.306 29.884 314.058 29.404 313.562 29.148C313.066 28.876 312.354 28.74 311.426 28.74H308.786V32.58H311.426ZM318.89 34.5V21.564H321.434V34.5H318.89ZM336.454 16.14C336.39 16.956 336.182 17.652 335.83 18.228C335.494 18.788 334.974 19.22 334.27 19.524C333.582 19.812 332.678 19.956 331.558 19.956C330.406 19.956 329.486 19.812 328.798 19.524C328.126 19.22 327.638 18.788 327.334 18.228C327.03 17.668 326.846 16.972 326.782 16.14H329.11C329.19 17.02 329.414 17.604 329.782 17.892C330.166 18.18 330.774 18.324 331.606 18.324C332.326 18.324 332.902 18.172 333.334 17.868C333.766 17.548 334.022 16.972 334.102 16.14H336.454ZM327.838 28.62C327.838 28.812 327.83 29.06 327.814 29.364C327.798 29.668 327.782 29.988 327.766 30.324C327.75 30.644 327.726 30.948 327.694 31.236C327.678 31.508 327.662 31.724 327.646 31.884L334.294 21.564H337.39V34.5H334.99V27.612C334.99 27.308 334.998 26.932 335.014 26.484C335.03 26.036 335.046 25.604 335.062 25.188C335.094 24.756 335.118 24.428 335.134 24.204L328.534 34.5H325.414V21.564H327.838V28.62ZM105.224 45.42C106.584 45.532 107.752 45.876 108.728 46.452C109.704 47.012 110.456 47.764 110.984 48.708C111.512 49.652 111.776 50.764 111.776 52.044C111.776 53.308 111.52 54.42 111.008 55.38C110.496 56.324 109.752 57.084 108.776 57.66C107.816 58.22 106.632 58.556 105.224 58.668V64.26H102.8V58.668C101.456 58.54 100.288 58.196 99.296 57.636C98.32 57.076 97.56 56.324 97.016 55.38C96.488 54.42 96.224 53.308 96.224 52.044C96.224 50.748 96.48 49.62 96.992 48.66C97.504 47.7 98.248 46.948 99.224 46.404C100.216 45.844 101.424 45.516 102.848 45.42V40.26H105.224V45.42ZM102.848 47.436C101.952 47.532 101.208 47.78 100.616 48.18C100.024 48.564 99.584 49.084 99.296 49.74C99.008 50.38 98.864 51.148 98.864 52.044C98.864 52.924 99.008 53.692 99.296 54.348C99.584 55.004 100.024 55.532 100.616 55.932C101.208 56.316 101.952 56.556 102.848 56.652V47.436ZM105.224 56.652C106.12 56.54 106.856 56.292 107.432 55.908C108.008 55.524 108.44 55.004 108.728 54.348C109.016 53.692 109.16 52.924 109.16 52.044C109.16 51.148 109.008 50.38 108.704 49.74C108.416 49.084 107.984 48.564 107.408 48.18C106.832 47.796 106.104 47.556 105.224 47.46V56.652ZM126.415 52.02C126.415 53.092 126.271 54.044 125.983 54.876C125.695 55.708 125.287 56.412 124.759 56.988C124.231 57.564 123.591 58.004 122.839 58.308C122.087 58.596 121.239 58.74 120.295 58.74C119.431 58.74 118.631 58.596 117.895 58.308C117.159 58.004 116.519 57.564 115.975 56.988C115.447 56.412 115.031 55.708 114.727 54.876C114.423 54.044 114.271 53.084 114.271 51.996C114.271 50.572 114.511 49.364 114.991 48.372C115.487 47.38 116.191 46.628 117.103 46.116C118.031 45.588 119.119 45.324 120.367 45.324C121.551 45.324 122.591 45.588 123.487 46.116C124.399 46.628 125.111 47.38 125.623 48.372C126.151 49.364 126.415 50.58 126.415 52.02ZM116.887 52.02C116.887 52.98 117.007 53.812 117.247 54.516C117.487 55.204 117.863 55.732 118.375 56.1C118.887 56.468 119.543 56.652 120.343 56.652C121.143 56.652 121.799 56.468 122.311 56.1C122.823 55.732 123.199 55.204 123.439 54.516C123.679 53.812 123.799 52.98 123.799 52.02C123.799 51.028 123.671 50.196 123.415 49.524C123.175 48.852 122.799 48.34 122.287 47.988C121.791 47.62 121.135 47.436 120.319 47.436C119.119 47.436 118.247 47.836 117.703 48.636C117.159 49.436 116.887 50.564 116.887 52.02ZM132.184 45.564V50.82H138.568V45.564H141.112V58.5H138.568V52.86H132.184V58.5H129.64V45.564H132.184ZM155.286 45.564V56.484H157.182V63.036H154.806V58.5H145.878V63.036H143.526V56.484H144.558C145.246 55.492 145.822 54.404 146.286 53.22C146.75 52.036 147.102 50.796 147.342 49.5C147.598 48.188 147.75 46.876 147.798 45.564H155.286ZM150.006 47.532C149.91 48.572 149.734 49.636 149.478 50.724C149.238 51.812 148.926 52.852 148.542 53.844C148.174 54.836 147.734 55.716 147.222 56.484H152.79V47.532H150.006Z" fill="black"/>
</svg>
