<svg id="icon__heart" width="32" height="32" viewBox="0 0 32 32" fill="none" xmlns="http://www.w3.org/2000/svg">
<path d="M16.0139 24H15.9888C15.8889 24.0001 15.7915 23.9709 15.71 23.9164C15.4439 23.7376 9.12898 19.5006 6.80266 15.9252L6.7935 15.9106C6.27372 15.098 5.99937 14.1674 6 13.219C6 10.3404 8.48885 8 11.5473 8C12.413 7.99956 13.2668 8.1899 14.0403 8.55576C14.8138 8.92162 15.4855 9.45284 16.0016 10.1069C16.5176 9.45299 17.1892 8.92186 17.9625 8.55601C18.7359 8.19016 19.5895 7.99974 20.4551 8C23.5131 8 26 10.3404 26 13.2198C26.0008 14.1682 25.7264 15.0988 25.2065 15.9114C25.2037 15.9164 25.2007 15.9213 25.1973 15.926C22.873 19.5003 16.5593 23.7376 16.2916 23.9164C16.2102 23.971 16.1127 24.0003 16.0127 24H16.0139Z" fill="#D91869"/>
</svg>
