<svg width="44" height="40" viewBox="0 0 44 40" fill="none" xmlns="http://www.w3.org/2000/svg">
<g id="Frame 7646">
<g id="Vector">
<path d="M22.0167 30H21.9866C21.8667 30.0001 21.7498 29.9636 21.652 29.8955C21.3327 29.672 13.7548 24.3758 10.9632 19.9065L10.9522 19.8883C10.3285 18.8725 9.99924 17.7093 10 16.5238C10 12.9255 12.9866 10 16.6568 10C17.6957 9.99946 18.7202 10.2374 19.6484 10.6947C20.5766 11.152 21.3826 11.8161 22.0019 12.6336C22.6212 11.8162 23.4271 11.1523 24.3551 10.695C25.2831 10.2377 26.3074 9.99968 27.3461 10C31.0158 10 34 12.9255 34 16.5247C34.0009 17.7102 33.6717 18.8736 33.0478 19.8892C33.0445 19.8955 33.0408 19.9016 33.0368 19.9075C30.2476 24.3753 22.6711 29.672 22.3499 29.8955C22.2523 29.9638 22.1352 30.0003 22.0153 30H22.0167Z" fill="white"/>
<path d="M18.7849 33.9919L18.785 33.9919L18.7826 33.9902C18.5626 33.8362 16.4609 32.3653 14.026 30.3278C11.7076 28.3878 8.57172 25.516 6.72247 22.5554L6.70035 22.5199L6.67882 22.4842L18.7849 33.9919ZM18.7849 33.9919L18.795 33.9989M18.7849 33.9919L18.795 33.9989M18.795 33.9989C19.7372 34.6549 20.8525 35.0001 21.9866 35C21.988 35 21.9893 35 21.9907 35L22.0118 35L18.795 33.9989ZM34 16.5247L39 16.5207C39 16.5216 39 16.5225 39 16.5233C38.9992 10.0715 33.6843 5.00084 27.3476 5L27.3461 10M34 16.5247C34 12.9255 31.0158 10 27.3461 10M34 16.5247C34.0009 17.7102 33.6717 18.8736 33.0478 19.8892L34 16.5247ZM27.3461 10C26.4896 9.99973 25.6429 10.1615 24.8518 10.4747M27.3461 10V5M24.8518 10.4747L27.3461 5M24.8518 10.4747L25.9875 9.61444C24.9814 8.28628 23.702 7.19514 22.2423 6.40765C22.1627 6.36474 22.0826 6.32273 22.002 6.28163M24.8518 10.4747L27.3461 5M27.3461 5C25.5441 4.99968 23.7632 5.4125 22.1449 6.21003C22.0971 6.23358 22.0495 6.25745 22.002 6.28163M22.002 6.28163C21.9209 6.323 21.8403 6.36528 21.7603 6.40849C20.3012 7.19585 19.0224 8.28659 18.0166 9.61415L19.1526 10.4748M22.002 6.28163C21.9543 6.25729 21.9064 6.23326 21.8583 6.20956C20.2398 5.41212 18.4588 4.99946 16.6568 5M19.1526 10.4748L16.6568 5M19.1526 10.4748C18.3611 10.1614 17.5138 9.99955 16.6568 10M19.1526 10.4748L16.6568 5M16.6568 5V10M16.6568 10C12.9866 10 10 12.9255 10 16.5238L16.6542 5M16.6568 10L16.6542 5M16.6542 5C10.3211 5.0014 5.00176 10.0679 5 16.5206L16.6542 5ZM5 16.5238C4.99924 18.6296 5.58229 20.6894 6.67788 22.4826L5 16.5238Z" stroke="white" stroke-opacity="0.1" stroke-width="10"/>
</g>
<g id="Vector_2">
<path d="M22.0167 30H21.9866C21.8667 30.0001 21.7498 29.9636 21.652 29.8955C21.3327 29.672 13.7548 24.3758 10.9632 19.9065L10.9522 19.8883C10.3285 18.8725 9.99924 17.7093 10 16.5238C10 12.9255 12.9866 10 16.6568 10C17.6957 9.99946 18.7202 10.2374 19.6484 10.6947C20.5766 11.152 21.3826 11.8161 22.0019 12.6336C22.6212 11.8162 23.4271 11.1523 24.3551 10.695C25.2831 10.2377 26.3074 9.99968 27.3461 10C31.0158 10 34 12.9255 34 16.5247C34.0009 17.7102 33.6717 18.8736 33.0478 19.8892C33.0445 19.8955 33.0408 19.9016 33.0368 19.9075C30.2476 24.3753 22.6711 29.672 22.3499 29.8955C22.2523 29.9638 22.1352 30.0003 22.0153 30H22.0167Z" fill="white"/>
<path d="M20.5052 31.5341L20.5092 31.5369L8 16.5238C7.99924 18.0776 8.43013 19.5998 9.24283 20.9266L9.24944 20.9376L9.25806 20.9519L9.26691 20.9661C10.8441 23.4911 13.6539 26.1046 15.9512 28.027C18.2873 29.9818 20.3068 31.3952 20.5024 31.5321L20.5052 31.5341ZM21.9882 32H22.0142L21.9866 30V32H21.9882ZM16.6557 8C11.9204 8.00056 8.00071 11.7824 8 16.5225L16.6557 8ZM20.5323 8.90065C19.328 8.30727 18.0009 7.99946 16.6568 8L23.471 8.90102C22.9501 9.15772 22.4581 9.46494 22.002 9.81732C21.5457 9.46477 21.0535 9.15743 20.5323 8.90065Z" stroke="white" stroke-opacity="0.3" stroke-width="4"/>
</g>
</g>
</svg>
