<svg xmlns="http://www.w3.org/2000/svg" xmlns:xlink="http://www.w3.org/1999/xlink"><symbol id="icon__arrow" viewBox="0 0 43 30"><g stroke="currentColor" fill="none" stroke-width="2" stroke-linecap="round"><path d="M42 15H2M16 1L2 15l14 14"/></g></symbol><symbol id="icon__classmates" viewBox="0 0 48 48"><path d="M26.633 29.737c-.168-.144-.367-.316-.564-.458 1.478-.287 2.217-.614 3.51-1.293.142-.08.275-.171.398-.272.717-.605.671-1.653.02-2.286a2.077 2.077 0 00-1.372-.5c-.444.021-.86.217-1.238.421-1.013.544-2.18.812-3.348.919-1.9.122-3.16-.246-4.6-.98a2.328 2.328 0 00-1.571-.23 1.615 1.615 0 00-1.015.608c-.573.762-.454 1.728.408 2.285 1.011.66 2.475 1.068 3.681 1.415-.662.69-1.89 1.742-2.625 2.41a10.55 10.55 0 00-.936.883 1.448 1.448 0 00-.338 1.018c.024.365.189.71.466.974.757.718 1.92.79 2.7.08.956-.838 1.873-1.707 2.82-2.551.184-.167.42-.384.565-.51 1.086.925 2.148 1.87 3.223 2.814.191.175.407.326.64.451.827.415 1.882.236 2.388-.487.477-.673.444-1.502-.207-2.084-.993-.878-2.007-1.744-3.005-2.627z" fill="#FF7A00"/><path d="M21.467 24.515c3.255 1.02 6.823-.503 7.969-3.404 1.146-2.9-.563-6.078-3.82-7.1-3.256-1.02-6.823.503-7.969 3.403s.565 6.08 3.82 7.1zm-.366-6.018a2.476 2.476 0 011.335-1.32 2.837 2.837 0 011.966-.09c.318.096.611.249.863.449s.458.444.605.718a2.106 2.106 0 01.114 1.772 2.475 2.475 0 01-1.334 1.322 2.838 2.838 0 01-1.968.093 2.588 2.588 0 01-.864-.45 2.334 2.334 0 01-.605-.719 2.11 2.11 0 01-.112-1.775z" fill="#FF7A00"/></symbol><symbol id="icon__heart" viewBox="0 0 32 32"><path d="M16.014 24h-.025c-.1 0-.198-.03-.279-.084-.266-.178-6.581-4.415-8.907-7.99l-.01-.015A4.983 4.983 0 016 13.219C6 10.34 8.489 8 11.547 8c.866 0 1.72.19 2.493.556a5.476 5.476 0 011.962 1.55 5.476 5.476 0 011.96-1.55A5.831 5.831 0 0120.455 8C23.513 8 26 10.34 26 13.22a4.98 4.98 0 01-.803 2.706c-2.324 3.574-8.638 7.812-8.905 7.99a.499.499 0 01-.28.084h.002z"/></symbol><symbol id="icon__logo" viewBox="0 0 340 75"><path d="M37.5 0l8.42 25.912h27.245L51.123 41.926l8.419 25.912L37.5 51.824 15.458 67.838l8.42-25.912L1.834 25.912h27.246L37.5 0z" fill="#F2A84F"/><path d="M97.28 34.5V17.364h10.368v2.232h-7.776v4.824h2.208c1.696 0 3.024.216 3.984.648.976.432 1.664 1.024 2.064 1.776.416.736.624 1.584.624 2.544 0 1.056-.224 1.968-.672 2.736-.432.768-1.12 1.36-2.064 1.776-.944.4-2.184.6-3.72.6H97.28zm4.824-2.184c1.408 0 2.424-.232 3.048-.696.624-.48.936-1.224.936-2.232 0-.704-.152-1.256-.456-1.656-.304-.4-.776-.688-1.416-.864-.624-.176-1.448-.264-2.472-.264h-1.872v5.712h2.232zM122.29 34.5h-2.568V23.604h-3.648c-.16 1.984-.36 3.688-.6 5.112-.224 1.408-.52 2.552-.888 3.432-.352.88-.792 1.528-1.32 1.944-.512.4-1.128.6-1.848.6-.256 0-.504-.024-.744-.072a2.215 2.215 0 01-.624-.168v-1.944c.112.032.232.064.36.096.144.016.288.024.432.024.32 0 .608-.128.864-.384.272-.256.512-.656.72-1.2.224-.544.424-1.248.6-2.112.192-.88.352-1.928.48-3.144a89.6 89.6 0 00.384-4.224h8.4V34.5zm8.991-13.176c1.632 0 2.848.36 3.648 1.08.8.704 1.2 1.816 1.2 3.336v8.76h-1.8l-.504-1.8h-.096a6.53 6.53 0 01-1.152 1.152 3.792 3.792 0 01-1.344.672c-.496.144-1.104.216-1.824.216-.768 0-1.464-.136-2.088-.408a3.32 3.32 0 01-1.44-1.296c-.352-.592-.528-1.328-.528-2.208 0-1.312.496-2.312 1.488-3 1.008-.688 2.536-1.064 4.584-1.128l2.208-.072v-.72c0-.96-.216-1.632-.648-2.016-.432-.384-1.04-.576-1.824-.576-.672 0-1.312.096-1.92.288-.608.192-1.184.424-1.728.696l-.816-1.848a9.96 9.96 0 012.088-.792 9.214 9.214 0 012.496-.336zm.6 7.008c-1.472.064-2.496.312-3.072.744-.56.416-.84 1.008-.84 1.776 0 .672.2 1.16.6 1.464.416.304.936.456 1.56.456 1.008 0 1.84-.28 2.496-.84.656-.56.984-1.4.984-2.52v-1.128l-1.728.048zm16.374-6.768v2.04h-5.664V34.5h-2.544V21.564h8.208zm13.668 6.456c0 1.072-.144 2.024-.432 2.856-.288.832-.696 1.536-1.224 2.112a5.22 5.22 0 01-1.92 1.32c-.752.288-1.6.432-2.544.432a6.53 6.53 0 01-2.4-.432 5.498 5.498 0 01-1.92-1.32c-.528-.576-.944-1.28-1.248-2.112-.304-.832-.456-1.792-.456-2.88 0-1.424.24-2.632.72-3.624.496-.992 1.2-1.744 2.112-2.256.928-.528 2.016-.792 3.264-.792 1.184 0 2.224.264 3.12.792.912.512 1.624 1.264 2.136 2.256.528.992.792 2.208.792 3.648zm-9.528 0c0 .96.12 1.792.36 2.496.24.688.616 1.216 1.128 1.584.512.368 1.168.552 1.968.552s1.456-.184 1.968-.552c.512-.368.888-.896 1.128-1.584.24-.704.36-1.536.36-2.496 0-.992-.128-1.824-.384-2.496-.24-.672-.616-1.184-1.128-1.536-.496-.368-1.152-.552-1.968-.552-1.2 0-2.072.4-2.616 1.2-.544.8-.816 1.928-.816 3.384zm21.975-4.416h-4.224V34.5h-2.52V23.604h-4.2v-2.04h10.944v2.04zm13.248 1.248c0 .784-.24 1.408-.72 1.872-.464.448-1.088.752-1.872.912v.096c.832.112 1.536.408 2.112.888.592.464.888 1.152.888 2.064 0 .56-.104 1.072-.312 1.536a3.331 3.331 0 01-.96 1.224c-.432.336-.992.6-1.68.792-.672.176-1.488.264-2.448.264h-5.736V21.564h5.736c.944 0 1.792.104 2.544.312.752.208 1.344.552 1.776 1.032.448.48.672 1.128.672 1.944zm-2.232 5.784c0-.672-.256-1.152-.768-1.44-.512-.304-1.272-.456-2.28-.456h-2.904v3.84h2.952c.944 0 1.68-.144 2.208-.432.528-.304.792-.808.792-1.512zm-.36-5.496c0-.56-.2-.968-.6-1.224-.4-.256-1.048-.384-1.944-.384h-3.048v3.264h2.664c.96 0 1.688-.128 2.184-.384.496-.272.744-.696.744-1.272zm17.468 2.88c0 1.072-.144 2.024-.432 2.856-.288.832-.696 1.536-1.224 2.112a5.22 5.22 0 01-1.92 1.32c-.752.288-1.6.432-2.544.432a6.53 6.53 0 01-2.4-.432 5.498 5.498 0 01-1.92-1.32c-.528-.576-.944-1.28-1.248-2.112-.304-.832-.456-1.792-.456-2.88 0-1.424.24-2.632.72-3.624.496-.992 1.2-1.744 2.112-2.256.928-.528 2.016-.792 3.264-.792 1.184 0 2.224.264 3.12.792.912.512 1.624 1.264 2.136 2.256.528.992.792 2.208.792 3.648zm-9.528 0c0 .96.12 1.792.36 2.496.24.688.616 1.216 1.128 1.584.512.368 1.168.552 1.968.552s1.456-.184 1.968-.552c.512-.368.888-.896 1.128-1.584.24-.704.36-1.536.36-2.496 0-.992-.128-1.824-.384-2.496-.24-.672-.616-1.184-1.128-1.536-.496-.368-1.152-.552-1.968-.552-1.2 0-2.072.4-2.616 1.2-.544.8-.816 1.928-.816 3.384zm19.209-6.696c1.552 0 2.8.56 3.744 1.68.96 1.12 1.44 2.792 1.44 5.016 0 1.456-.216 2.688-.648 3.696-.432 1.008-1.04 1.768-1.824 2.28-.784.496-1.696.744-2.736.744-.656 0-1.232-.08-1.728-.24-.496-.176-.92-.4-1.272-.672a6.794 6.794 0 01-.888-.912h-.168c.048.288.088.632.12 1.032.032.384.048.728.048 1.032v5.28h-2.544V21.564h2.064l.36 1.728h.12c.256-.352.56-.68.912-.984a3.936 3.936 0 011.272-.72c.496-.176 1.072-.264 1.728-.264zm-.6 2.088c-.8 0-1.44.16-1.92.48-.48.304-.832.768-1.056 1.392-.208.608-.32 1.384-.336 2.328v.384c0 .992.104 1.84.312 2.544.208.688.552 1.216 1.032 1.584.496.352 1.168.528 2.016.528.72 0 1.304-.192 1.752-.576.464-.4.808-.952 1.032-1.656.224-.704.336-1.52.336-2.448 0-1.408-.256-2.52-.768-3.336-.512-.816-1.312-1.224-2.4-1.224zm11.45 5.208c0 .192-.008.44-.024.744a192.6 192.6 0 00-.048.96 15.1 15.1 0 01-.072.912 16.73 16.73 0 01-.048.648l6.648-10.32h3.096V34.5h-2.4v-6.888c0-.304.008-.68.024-1.128l.048-1.296.072-.984-6.6 10.296h-3.12V21.564h2.424v7.056zm23.017-5.016h-4.224V34.5h-2.52V23.604h-4.2v-2.04h10.944v2.04zm7.374-2.28c1.136 0 2.112.24 2.928.72.816.464 1.44 1.136 1.872 2.016.448.88.672 1.92.672 3.12v1.392H250.2c.032 1.328.376 2.344 1.032 3.048.672.704 1.608 1.056 2.808 1.056.832 0 1.568-.072 2.208-.216a12.08 12.08 0 002.016-.696v2.112a9.776 9.776 0 01-1.968.648c-.656.144-1.44.216-2.352.216-1.248 0-2.352-.248-3.312-.744s-1.712-1.232-2.256-2.208c-.528-.992-.792-2.208-.792-3.648 0-1.456.24-2.688.72-3.696.496-1.008 1.176-1.776 2.04-2.304.88-.544 1.904-.816 3.072-.816zm0 1.968c-.912 0-1.648.296-2.208.888-.544.592-.864 1.432-.96 2.52h6.096c0-.672-.104-1.264-.312-1.776a2.559 2.559 0 00-.96-1.2c-.432-.288-.984-.432-1.656-.432zM272.43 34.5h-2.568V23.604h-3.648c-.16 1.984-.36 3.688-.6 5.112-.224 1.408-.52 2.552-.888 3.432-.352.88-.792 1.528-1.32 1.944-.512.4-1.128.6-1.848.6-.256 0-.504-.024-.744-.072a2.215 2.215 0 01-.624-.168v-1.944c.112.032.232.064.36.096.144.016.288.024.432.024.32 0 .608-.128.864-.384.272-.256.512-.656.72-1.2.224-.544.424-1.248.6-2.112.192-.88.352-1.928.48-3.144a89.6 89.6 0 00.384-4.224h8.4V34.5zm9.952-7.728c1.184 0 2.16.144 2.928.432.784.272 1.368.68 1.752 1.224.4.544.6 1.232.6 2.064 0 .816-.184 1.528-.552 2.136-.368.592-.944 1.056-1.728 1.392-.784.32-1.792.48-3.024.48h-5.952V21.564h2.544v5.208h3.432zm2.736 3.816c0-.704-.256-1.184-.768-1.44-.496-.272-1.216-.408-2.16-.408h-3.24v3.84h3.288c.848 0 1.536-.152 2.064-.456.544-.304.816-.816.816-1.536zm8.223-9.024v5.256h6.384v-5.256h2.544V34.5h-2.544v-5.64h-6.384v5.64h-2.544V21.564h2.544zM306.242 34.5V21.564h2.544v5.208h2.856c1.184 0 2.16.144 2.928.432.768.272 1.336.68 1.704 1.224.368.544.552 1.232.552 2.064 0 .816-.184 1.528-.552 2.136-.352.592-.912 1.056-1.68 1.392-.752.32-1.744.48-2.976.48h-5.376zm5.184-1.92c.848 0 1.536-.144 2.064-.432.544-.304.816-.824.816-1.56 0-.704-.248-1.184-.744-1.44-.496-.272-1.208-.408-2.136-.408h-2.64v3.84h2.64zm7.464 1.92V21.564h2.544V34.5h-2.544zm17.564-18.36c-.064.816-.272 1.512-.624 2.088-.336.56-.856.992-1.56 1.296-.688.288-1.592.432-2.712.432-1.152 0-2.072-.144-2.76-.432-.672-.304-1.16-.736-1.464-1.296-.304-.56-.488-1.256-.552-2.088h2.328c.08.88.304 1.464.672 1.752.384.288.992.432 1.824.432.72 0 1.296-.152 1.728-.456.432-.32.688-.896.768-1.728h2.352zm-8.616 12.48c0 .192-.008.44-.024.744a192.6 192.6 0 00-.048.96 15.1 15.1 0 01-.072.912 16.73 16.73 0 01-.048.648l6.648-10.32h3.096V34.5h-2.4v-6.888c0-.304.008-.68.024-1.128l.048-1.296.072-.984-6.6 10.296h-3.12V21.564h2.424v7.056zm-222.614 16.8c1.36.112 2.528.456 3.504 1.032.976.56 1.728 1.312 2.256 2.256.528.944.792 2.056.792 3.336 0 1.264-.256 2.376-.768 3.336-.512.944-1.256 1.704-2.232 2.28-.96.56-2.144.896-3.552 1.008v5.592H102.8v-5.592c-1.344-.128-2.512-.472-3.504-1.032a6.053 6.053 0 01-2.28-2.256c-.528-.96-.792-2.072-.792-3.336 0-1.296.256-2.424.768-3.384a5.51 5.51 0 012.232-2.256c.992-.56 2.2-.888 3.624-.984v-5.16h2.376v5.16zm-2.376 2.016c-.896.096-1.64.344-2.232.744a3.49 3.49 0 00-1.32 1.56c-.288.64-.432 1.408-.432 2.304 0 .88.144 1.648.432 2.304a3.64 3.64 0 001.32 1.584c.592.384 1.336.624 2.232.72v-9.216zm2.376 9.216c.896-.112 1.632-.36 2.208-.744a3.542 3.542 0 001.296-1.56c.288-.656.432-1.424.432-2.304 0-.896-.152-1.664-.456-2.304a3.542 3.542 0 00-1.296-1.56c-.576-.384-1.304-.624-2.184-.72v9.192zm21.191-4.632c0 1.072-.144 2.024-.432 2.856-.288.832-.696 1.536-1.224 2.112a5.22 5.22 0 01-1.92 1.32c-.752.288-1.6.432-2.544.432a6.53 6.53 0 01-2.4-.432 5.498 5.498 0 01-1.92-1.32c-.528-.576-.944-1.28-1.248-2.112-.304-.832-.456-1.792-.456-2.88 0-1.424.24-2.632.72-3.624.496-.992 1.2-1.744 2.112-2.256.928-.528 2.016-.792 3.264-.792 1.184 0 2.224.264 3.12.792.912.512 1.624 1.264 2.136 2.256.528.992.792 2.208.792 3.648zm-9.528 0c0 .96.12 1.792.36 2.496.24.688.616 1.216 1.128 1.584.512.368 1.168.552 1.968.552s1.456-.184 1.968-.552c.512-.368.888-.896 1.128-1.584.24-.704.36-1.536.36-2.496 0-.992-.128-1.824-.384-2.496-.24-.672-.616-1.184-1.128-1.536-.496-.368-1.152-.552-1.968-.552-1.2 0-2.072.4-2.616 1.2-.544.8-.816 1.928-.816 3.384zm15.297-6.456v5.256h6.384v-5.256h2.544V58.5h-2.544v-5.64h-6.384v5.64h-2.544V45.564h2.544zm23.102 0v10.92h1.896v6.552h-2.376V58.5h-8.928v4.536h-2.352v-6.552h1.032a15.849 15.849 0 001.728-3.264 20.3 20.3 0 001.056-3.72c.256-1.312.408-2.624.456-3.936h7.488zm-5.28 1.968a23.28 23.28 0 01-.528 3.192 21.397 21.397 0 01-.936 3.12 12.71 12.71 0 01-1.32 2.64h5.568v-8.952h-2.784z" fill="#000"/></symbol><symbol id="icon__tg" viewBox="0 0 48 48"><path d="M34.44 16.465l-3.145 14.833c-.237 1.047-.856 1.308-1.735.814l-4.793-3.531-2.312 2.224c-.256.256-.47.47-.963.47l.344-4.88 8.882-8.027c.386-.344-.084-.535-.6-.19l-10.98 6.913-4.728-1.48c-1.028-.32-1.047-1.028.214-1.52l18.49-7.124c.857-.321 1.606.19 1.327 1.498z" fill="#3390EC"/></symbol><symbol id="icon__vk" viewBox="0 0 48 48"><path d="M25.354 31c-7.863 0-12.348-5.39-12.534-14.36h3.938c.13 6.583 3.033 9.372 5.333 9.947v-9.948h3.71v5.678c2.27-.244 4.656-2.831 5.461-5.678h3.71c-.619 3.508-3.207 6.095-5.047 7.16 1.84.862 4.787 3.119 5.909 7.201H31.75c-.877-2.731-3.062-4.844-5.95-5.132V31h-.447z" fill="#07F"/></symbol><symbol id="icon__youtube" viewBox="0 0 48 48"><path d="M33.533 20.31c0-1.758-1.293-3.172-2.89-3.172-2.165-.102-4.372-.14-6.627-.14h-.703c-2.25 0-4.461.038-6.626.14-1.594 0-2.887 1.422-2.887 3.18a57.232 57.232 0 00-.137 4.172c-.004 1.391.04 2.782.133 4.177 0 1.758 1.293 3.184 2.887 3.184 2.274.105 4.606.152 6.978.148 2.375.008 4.7-.039 6.977-.148 1.598 0 2.891-1.426 2.891-3.184.094-1.395.137-2.786.133-4.18a57.452 57.452 0 00-.129-4.177zM21.75 28.323v-7.677l5.665 3.837-5.665 3.84z" fill="#EE3A3A"/></symbol><view id="icon__arrow--down-view" viewBox="0 0 24 24"/>
<use href="#icon__arrow--down" width="24" height="24" x="0" y="0"/>

<view id="icon__default-view" viewBox="0 80 24 24"/>
<use href="#icon__default" width="24" height="24" x="0" y="80"/>
</svg>